<?xml version="1.0" encoding="UTF-8"?>
<svg xmlns="http://www.w3.org/2000/svg" width="448.16" height="185.72" xmlns:xlink="http://www.w3.org/1999/xlink"
	viewBox="0 0 448.16 185.72" fill="#0033A0">
	<rect fill="#fff" x="5.38" y="5.38" width="437.4" height="174.96" rx="83.41" ry="83.41" />
	<path
		d="M359.37,185.72H88.79C39.83,185.72,0,145.89,0,96.93v-8.14C0,39.83,39.83,0,88.79,0h270.58C408.33,0,448.16,39.83,448.16,88.79v8.14c0,48.96-39.83,88.79-88.79,88.79ZM88.79,10.76C45.76,10.76,10.76,45.76,10.76,88.79v8.14c0,43.03,35,78.03,78.03,78.03h270.58c43.03,0,78.03-35,78.03-78.03v-8.14c0-43.03-35-78.03-78.03-78.03H88.79Z" />
	<path
		d="M156.46,95c-.06-4.4-4.56-2.94-4.56-2.94-8.27,1.85-10.95-4.85-10.95-4.85-1.05-2.62-3.29-1.63-3.29-1.63-11.52,2.01-11.84-8.24-11.84-8.24.29-4.18-2.47-4.88-2.47-4.88-9.27-5.27-2.99-12.77-2.99-12.77,1.66-1.85.53-3.44.53-3.44-5.69-10.18,1.22-15.17,1.22-15.17,2.59-2.53-1.07-4.75-2.68-5.55-7.85-3.53-16.56-5.49-25.73-5.49-34.69,0-62.82,28.12-62.82,62.82s28.12,62.82,62.82,62.82,61.66-26.99,62.78-60.7l-.02.02ZM137.42,121.17c-2.42,3.04-5,5.95-7.21,9.17-.86,1.25-2.11,2.33-3.39,3.18-2.38,1.6-4.65,3.26-6.52,5.49-1.12,1.34-2.69,2.22-4.32,2.8-5.69,2.01-10.39,5.42-14.3,9.95-.82.96-1.8,1.63-2.99,1.96-1.32.36-2.6.26-3.57-.86-1.01-1.17-.7-2.37,0-3.58,2.19-3.74,3.96-7.63,4.84-11.92.95-4.64.35-8.54-3.54-11.9-4.98-4.29-5.89-12.42-2.52-18.03,1.79-2.98.96-5.19-2.35-6.01-2.27-.56-3.83-1.92-4.82-3.96-2.06-4.22-5.42-6.51-10.05-7.25-4.15-.66-7.67-2.42-9.96-6.24-1.01-1.69-2.25-3.4-3.8-4.57-4.49-3.4-4.63-8.04-4.07-12.9.34-2.97,1.4-5.64,3.62-7.83,1.53-1.51,2.85-3.26,3.81-5.22,1.16-2.39.62-3.76-1.94-4.52-1.44-.43-2.79-.87-3.79-2.06-1.43-1.7-1.25-3.29.77-4.2,2.45-1.1,4.68-2.46,6.89-3.99,2.61-1.8,5.58-2.08,8.44.04,2.12,1.57,4.68,1.92,7.23,2.51,4.65,1.06,9,1.94,13.7-.14,2.16-.95,4.73.43,6.78,1.83.92.63,1.98,1.39,1.48,2.71-.45,1.19-1.62,1.09-2.69,1.01-.6-.05-1.21-.08-1.9-.12-1.73.1-3.55.02-5.29.71-2.61,1.04-3.86,3.22-3.5,5.97.18,1.32.98,2.07,2.15,2.24,1.06.16,1.73-.6,2.07-1.59.23-.65.41-1.32.69-1.95.98-2.16,1.92-2.4,3.9-1.01,1.87,1.31,3.88,2.25,6.16,2.53,1.51.19,2.63.88,3.03,2.41.35,1.36-.29,2.2-1.46,2.96-1.15.75-1.45,1.9-.23,3.03,1.73,1.6,1.07,2.64-.82,3.4-3.79,1.52-7.04,3.67-8.77,7.59-.33.76-1.07,1.19-1.83,1.34-2.55.49-2.64,2.15-1.99,4.1.44,1.3,1.1,2.52,1.59,3.81.35.91.59,1.95-.57,2.47-1.17.52-1.98-.1-2.52-1.14-.08-.15-.17-.3-.25-.46-2.84-5.95-8.97-7.43-14.27-3.4-1.64,1.25-2.74,3.06-1.74,4.95,1.12,2.12,3.23,1.51,5.05.72,3.47-1.51,4.06-1.19,4.37,2.74.1,1.18.67,1.42,1.63,1.52,2.26.23,3.19,1.55,2.83,3.75-.41,2.49.95,3.48,3.13,3.8,2.61.38,5.13-.06,7.68-.68,6.13-1.5,11.67-.72,15.86,4.66.85,1.09,1.98,1.77,3.59,1.64,3-.24,5.2,1.18,6.34,3.95.99,2.41,2.57,3.59,5.23,3.91,5.25.62,7.45,6.44,4.08,10.68" />
	<path
		d="M178.08,71.08c-3.46,0-6.32-1.31-8.6-3.93-2.28-2.62-3.41-5.81-3.41-9.57v-8.98c0-.82.02-1.42.08-1.8.05-.38.21-.82.46-1.33.26-.51.71-.87,1.36-1.08.65-.21,1.52-.31,2.62-.31.89,0,1.62.09,2.21.26.58.17,1.03.38,1.33.62.31.24.54.59.69,1.05.15.46.24.86.26,1.18.02.33.03.81.03,1.46v8.98c0,1.4.4,2.5,1.21,3.28.8.79,1.89,1.18,3.26,1.18s2.42-.41,3.26-1.23c.84-.82,1.26-1.9,1.26-3.23v-9.08c0-.79.03-1.38.08-1.77.05-.39.21-.84.46-1.33.26-.5.71-.85,1.36-1.05.65-.21,1.52-.31,2.62-.31s1.92.1,2.57.31c.65.21,1.1.56,1.36,1.08.26.51.41.97.46,1.36.05.39.08.98.08,1.77v18.17c0,.75-.03,1.33-.08,1.72-.05.39-.21.83-.49,1.31-.27.48-.74.82-1.39,1.03-.65.21-1.51.31-2.57.31s-1.86-.1-2.51-.31c-.65-.2-1.1-.51-1.33-.92-.24-.41-.39-.75-.44-1.03-.05-.27-.08-.63-.08-1.08-.07.1-.16.22-.28.36-.12.14-.38.39-.77.77-.39.38-.81.71-1.26,1-.45.29-1.01.56-1.69.8-.68.24-1.39.36-2.1.36" />
	<path
		d="M212.21,44.14c3.42,0,6.27,1.31,8.54,3.93,2.27,2.62,3.41,5.81,3.41,9.57v9.03c0,.79-.03,1.38-.08,1.77-.05.39-.21.84-.46,1.33-.26.5-.71.85-1.36,1.05-.65.21-1.52.31-2.62.31-.89,0-1.62-.09-2.21-.26s-1.03-.37-1.33-.59c-.31-.22-.54-.57-.69-1.05-.15-.48-.24-.87-.26-1.18-.02-.31-.03-.79-.03-1.44v-9.03c0-1.4-.4-2.5-1.21-3.29-.8-.79-1.89-1.18-3.26-1.18s-2.42.41-3.26,1.23c-.84.82-1.26,1.9-1.26,3.23v9.08c0,.79-.02,1.38-.08,1.77-.05.39-.21.84-.46,1.33-.26.5-.71.85-1.36,1.05-.65.21-1.52.31-2.62.31s-1.92-.1-2.57-.31c-.65-.21-1.1-.56-1.36-1.08-.26-.51-.41-.97-.46-1.36-.05-.39-.08-.98-.08-1.77v-18.17c0-.75.03-1.33.08-1.72.05-.39.21-.83.49-1.31.27-.48.74-.81,1.38-1,.65-.19,1.51-.28,2.57-.28s1.86.1,2.51.31c.65.21,1.1.51,1.33.9.24.39.38.73.43,1,.05.27.08.63.08,1.08.07-.1.16-.22.28-.36.12-.14.38-.39.77-.77.39-.38.81-.71,1.26-1,.44-.29,1.02-.56,1.72-.8.7-.24,1.41-.36,2.13-.36" />
	<path
		d="M232.74,40.49c-1.06,0-1.92-.1-2.57-.31-.65-.21-1.1-.57-1.36-1.08-.26-.51-.41-.97-.46-1.36-.05-.39-.08-.98-.08-1.77s.02-1.38.08-1.77c.05-.39.21-.84.46-1.33.26-.5.71-.85,1.36-1.05.65-.2,1.52-.31,2.62-.31s1.92.1,2.57.31c.65.21,1.1.56,1.36,1.08.26.51.41.97.46,1.36.05.39.08.99.08,1.77s-.03,1.38-.08,1.77c-.05.39-.21.84-.46,1.33-.26.5-.71.85-1.36,1.05-.65.21-1.52.31-2.62.31M228.27,48.65c0-.79.02-1.38.08-1.77.05-.39.21-.84.46-1.33.26-.5.71-.85,1.36-1.05.65-.21,1.52-.31,2.62-.31.85,0,1.58.09,2.18.26.6.17,1.04.38,1.33.62s.51.59.67,1.05c.15.46.24.86.26,1.18.02.33.03.81.03,1.46v17.96c0,.79-.03,1.38-.08,1.77-.05.39-.21.84-.46,1.33-.26.5-.71.85-1.36,1.05-.65.21-1.52.31-2.62.31s-1.92-.1-2.57-.31c-.65-.21-1.1-.56-1.36-1.08-.26-.51-.41-.96-.46-1.33-.05-.38-.08-.97-.08-1.8v-18.01Z" />
	<path
		d="M268.61,44.75c1.78,1.06,2.67,2.19,2.67,3.39,0,.69-.34,1.63-1.03,2.82l-10.62,18.22c-.1.17-.26.39-.46.64s-.64.59-1.31,1c-.67.41-1.36.62-2.08.62s-1.46-.18-2.13-.54c-.67-.36-1.14-.73-1.41-1.1l-.46-.56-10.68-18.27c-.68-1.13-1.03-2.05-1.03-2.77,0-1.23.89-2.38,2.67-3.44,1.3-.75,2.34-1.13,3.13-1.13.72,0,1.29.23,1.72.69.43.46.88,1.15,1.36,2.08l6.72,12.93,6.72-12.93c.38-.65.66-1.12.85-1.41.19-.29.49-.58.9-.87.41-.29.87-.44,1.39-.44.85,0,1.88.36,3.08,1.08" />
	<path
		d="M298.63,54.19c0,2.26-.52,3.89-1.57,4.9-1.04,1.01-2.2,1.51-3.46,1.51h-12.16c0,.96.57,1.76,1.69,2.41,1.13.65,2.34.97,3.64.97.92,0,1.8-.07,2.62-.21.82-.14,1.42-.27,1.8-.41l.57-.21c.82-.38,1.51-.57,2.05-.57,1.09,0,2.04.77,2.82,2.31.44.92.67,1.71.67,2.36,0,3.04-3.64,4.57-10.93,4.57-2.53,0-4.78-.44-6.75-1.31-1.97-.87-3.5-2.02-4.59-3.44-1.1-1.42-1.91-2.92-2.44-4.49-.53-1.57-.79-3.18-.79-4.82,0-4.31,1.39-7.76,4.18-10.34,2.79-2.58,6.27-3.88,10.44-3.88,1.68,0,3.22.23,4.62.69,1.4.46,2.57,1.06,3.49,1.8.92.74,1.7,1.58,2.33,2.54.63.96,1.09,1.91,1.36,2.85.27.94.41,1.86.41,2.75M287.8,55.94c1.3,0,1.95-.55,1.95-1.64,0-.79-.3-1.42-.9-1.9-.6-.48-1.46-.72-2.59-.72s-2.19.45-3.28,1.36c-1.1.91-1.64,1.87-1.64,2.9h6.47Z" />
	<path
		d="M322.6,47.32c0,1.47-.33,2.86-.97,4.16-.65,1.3-1.59,1.95-2.82,1.95-.62,0-1.21-.14-1.77-.41-.56-.27-1.14-.41-1.72-.41-1.27,0-2.3.33-3.11.98-.8.65-1.21,1.44-1.21,2.36v10.78c0,.79-.03,1.38-.08,1.77-.05.39-.21.84-.49,1.33-.27.5-.74.85-1.39,1.05-.65.21-1.52.31-2.62.31-.85,0-1.58-.08-2.18-.26-.6-.17-1.04-.38-1.33-.62-.29-.24-.51-.59-.67-1.05-.15-.46-.24-.86-.26-1.18-.02-.33-.02-.81-.02-1.46v-18.01c0-.79.02-1.38.08-1.77.05-.39.21-.84.46-1.34.26-.49.71-.85,1.36-1.05.65-.21,1.52-.31,2.62-.31,1.03,0,1.86.1,2.51.31.65.2,1.1.49,1.33.85.24.36.39.66.46.9.07.24.1.51.1.82.17-.24.42-.53.74-.87.32-.34,1.02-.8,2.08-1.39,1.06-.58,2.14-.87,3.23-.87.51,0,1.04.04,1.59.13.55.09,1.14.23,1.8.44.65.2,1.19.56,1.62,1.05.43.5.64,1.1.64,1.82" />
	<path
		d="M334.35,71.64c-3.46,0-6.71-.96-9.75-2.87-.65-.41-.97-1.01-.97-1.8,0-.99.65-2.39,1.95-4.21.38-.58.96-.87,1.75-.87.89,0,1.93.36,3.13,1.08,1.68.96,3.1,1.44,4.26,1.44,2.08,0,3.13-.41,3.13-1.23,0-.34-.32-.63-.97-.87-.65-.24-1.47-.43-2.46-.57-.99-.14-2.06-.42-3.21-.85-1.15-.43-2.22-.95-3.21-1.57-.99-.61-1.81-1.58-2.46-2.9-.65-1.32-.98-2.88-.98-4.7,0-5.4,3.71-8.11,11.14-8.11,2.43,0,4.93.58,7.49,1.74,1.2.55,1.8,1.3,1.8,2.26,0,.68-.36,1.61-1.08,2.77-.79,1.23-1.57,1.85-2.36,1.85-.41,0-.99-.17-1.74-.51-1.47-.68-2.86-1.03-4.16-1.03-2.02,0-3.03.38-3.03,1.13,0,.55.33.98,1,1.31.67.33,1.51.55,2.52.67,1.01.12,2.09.35,3.26.69,1.16.34,2.25.76,3.26,1.26,1.01.5,1.85,1.33,2.51,2.51.67,1.18,1,2.63,1,4.34,0,1.85-.33,3.4-1,4.64-.67,1.25-1.61,2.17-2.82,2.77-1.22.6-2.45,1.02-3.69,1.26-1.25.24-2.68.36-4.29.36" />
	<path
		d="M371.5,44.14c1.06,0,1.92.1,2.57.31.65.21,1.1.56,1.36,1.08.26.51.41.97.46,1.36.05.39.08.98.08,1.77v17.96c0,.79-.03,1.38-.08,1.77-.05.39-.2.84-.46,1.33-.26.5-.71.85-1.36,1.05-.65.21-1.52.31-2.62.31-1.54,0-2.63-.23-3.26-.69-.63-.46-1-1.14-1.1-2.03-1.27,1.81-3.32,2.72-6.16,2.72-3.08,0-5.88-1.35-8.42-4.05-2.53-2.7-3.8-5.87-3.8-9.5s1.28-6.63,3.82-9.31c2.55-2.69,5.35-4.03,8.39-4.03,1.16,0,2.22.21,3.18.62.96.41,1.62.8,2,1.16.38.36.68.71.92,1.05.1-.96.47-1.68,1.1-2.16.63-.48,1.75-.72,3.36-.72M362.32,62.1c1.23,0,2.27-.46,3.11-1.39.84-.92,1.26-1.95,1.26-3.08s-.4-2.12-1.21-3.08c-.8-.96-1.89-1.44-3.26-1.44s-2.42.48-3.26,1.44c-.84.96-1.26,2-1.26,3.13s.44,2.15,1.34,3.05c.89.91,1.98,1.36,3.28,1.36" />
	<path
		d="M380.07,35.92c0-.79.03-1.38.08-1.77.05-.39.2-.85.46-1.36.26-.51.71-.87,1.36-1.08.65-.2,1.52-.31,2.62-.31s1.91.11,2.54.33c.63.22,1.09.58,1.36,1.08.27.5.44.95.49,1.36.05.41.08,1.01.08,1.8v23.76c0,1.23.1,2.01.31,2.33.2.32.77.49,1.69.49.48,0,.84.03,1.08.08.24.05.54.2.9.44.36.24.62.66.77,1.26.15.6.23,1.39.23,2.39,0,1.06-.08,1.92-.23,2.57-.15.65-.41,1.1-.77,1.36-.36.26-.67.41-.92.46-.26.05-.62.08-1.1.08-1.81,0-3.27-.07-4.36-.21-1.1-.14-2.11-.4-3.05-.8-.94-.39-1.64-1-2.1-1.82-.46-.82-.81-1.86-1.05-3.13s-.36-2.89-.36-4.88v-24.43Z" />
	<path
		d="M212.79,82.78c3.57,1.57,5.36,3.48,5.36,5.72,0,.97-.45,2.42-1.36,4.36v.09c-.06.06-.09.12-.09.18l-23.8,53.22c-.49,1.15-.89,2.03-1.23,2.63-.33.61-.86,1.18-1.59,1.72-.73.55-1.57.82-2.54.82-1.21,0-2.88-.45-4.99-1.36-3.57-1.57-5.36-3.45-5.36-5.63,0-.97.48-2.54,1.45-4.72,2.24-5.15,4.66-10.5,7.27-16.07l-18.07-30.43c-1.21-2-1.82-3.48-1.82-4.45,0-1.94,1.64-3.87,4.9-5.81,2.06-1.21,3.82-1.82,5.27-1.82.85,0,1.64.24,2.36.73.73.49,1.26.99,1.59,1.5.33.51.83,1.32,1.5,2.41,5.33,9.14,9.36,15.93,12.08,20.35.3-.97,3.21-7.48,8.72-19.53.42-.97.74-1.67.95-2.09.21-.42.54-.92,1-1.5.45-.57.95-.98,1.5-1.23.54-.24,1.21-.36,2-.36,1.33,0,2.97.42,4.9,1.27" />
	<path
		d="M244.39,129.91c-6.12,0-11.19-2.31-15.21-6.95-4.03-4.63-6.04-10.28-6.04-16.94v-15.89c0-1.45.04-2.51.14-3.18.09-.66.36-1.45.82-2.36.46-.91,1.26-1.54,2.41-1.91,1.15-.36,2.69-.54,4.63-.54,1.57,0,2.88.15,3.91.45,1.03.3,1.82.67,2.36,1.09.54.42.95,1.04,1.23,1.86s.42,1.51.45,2.09c.03.58.05,1.44.05,2.59v15.89c0,2.48.71,4.42,2.13,5.81,1.42,1.39,3.35,2.09,5.77,2.09s4.28-.73,5.77-2.18c1.48-1.45,2.23-3.36,2.23-5.72v-16.07c0-1.39.04-2.44.14-3.13.09-.7.36-1.48.82-2.36.45-.88,1.26-1.5,2.41-1.86,1.15-.36,2.69-.54,4.63-.54s3.39.18,4.54.54c1.15.36,1.95,1,2.41,1.91.45.91.73,1.71.82,2.41.09.7.14,1.74.14,3.13v32.15c0,1.33-.04,2.35-.14,3.04-.09.7-.38,1.47-.86,2.32-.49.85-1.3,1.45-2.45,1.82-1.15.36-2.66.54-4.54.54s-3.3-.18-4.45-.54c-1.15-.36-1.94-.91-2.36-1.64-.43-.73-.68-1.33-.77-1.82-.09-.48-.14-1.12-.14-1.91-.12.18-.29.4-.5.64-.21.24-.67.7-1.36,1.36-.7.67-1.44,1.26-2.23,1.77-.79.51-1.79.98-3,1.41-1.21.42-2.45.64-3.72.64" />
	<path
		d="M331.13,82.14c4.84,0,8.9,1.86,12.17,5.59,3.27,3.72,4.9,9.89,4.9,18.48v15.89c0,1.39-.04,2.44-.14,3.13-.09.7-.36,1.5-.82,2.41-.45.91-1.26,1.54-2.41,1.91-1.15.36-2.69.55-4.63.55s-3.39-.2-4.54-.59c-1.15-.39-1.95-1.05-2.41-1.95-.45-.91-.73-1.71-.82-2.41-.09-.69-.14-1.74-.14-3.13v-15.9c0-5.27-1.88-7.9-5.63-7.9-2.12,0-3.56.7-4.31,2.09-.76,1.39-1.14,3.36-1.14,5.9v15.89c0,1.45-.04,2.51-.14,3.18-.09.67-.38,1.45-.86,2.36-.49.91-1.3,1.54-2.45,1.91-1.15.36-2.7.55-4.63.55s-3.39-.2-4.54-.59c-1.15-.39-1.95-1.05-2.41-1.95-.46-.91-.73-1.71-.82-2.41-.09-.69-.14-1.74-.14-3.13v-15.9c0-5.27-1.88-7.9-5.63-7.9s-5.45,2.63-5.45,7.9v16.08c0,1.39-.05,2.44-.14,3.13-.09.7-.38,1.48-.86,2.36-.49.88-1.3,1.5-2.45,1.86-1.15.36-2.69.55-4.63.55s-3.39-.18-4.54-.55c-1.15-.36-1.95-1-2.41-1.91-.45-.91-.73-1.69-.82-2.36-.09-.66-.14-1.73-.14-3.18v-31.97c0-1.39.05-2.44.14-3.13.09-.69.38-1.48.86-2.36.48-.88,1.3-1.5,2.45-1.86,1.15-.36,2.69-.54,4.63-.54,2.97,0,4.96.54,5.99,1.63,1.03,1.09,1.54,2.67,1.54,4.72.12-.18.27-.41.46-.68.18-.27.6-.79,1.27-1.54.67-.76,1.36-1.42,2.09-2,.73-.57,1.68-1.09,2.86-1.54,1.18-.45,2.38-.68,3.59-.68,6.18,0,10.78,2.63,13.81,7.9.66-.91,1.47-1.86,2.41-2.86.94-1,2.44-2.09,4.49-3.27,2.06-1.18,4.18-1.77,6.36-1.77" />
	<path
		d="M373.09,130.91c-6.12,0-11.87-1.69-17.26-5.09-1.15-.73-1.73-1.79-1.73-3.18,0-1.76,1.15-4.24,3.45-7.45.67-1.03,1.69-1.54,3.09-1.54,1.57,0,3.42.64,5.54,1.91,2.97,1.69,5.48,2.54,7.54,2.54,3.69,0,5.54-.73,5.54-2.18,0-.6-.58-1.12-1.73-1.54-1.15-.42-2.6-.76-4.36-1-1.76-.24-3.65-.74-5.68-1.5-2.03-.76-3.92-1.68-5.68-2.77-1.76-1.09-3.21-2.8-4.36-5.13-1.15-2.33-1.73-5.1-1.73-8.31,0-9.57,6.57-14.35,19.71-14.35,4.3,0,8.72,1.03,13.26,3.09,2.12.97,3.18,2.3,3.18,4,0,1.21-.63,2.85-1.91,4.9-1.39,2.18-2.78,3.27-4.18,3.27-.73,0-1.76-.3-3.09-.91-2.6-1.21-5.06-1.82-7.36-1.82-3.57,0-5.36.67-5.36,2,0,.97.59,1.74,1.77,2.32,1.18.58,2.66.97,4.45,1.18,1.78.21,3.71.62,5.77,1.23,2.06.61,3.98,1.35,5.77,2.22,1.78.88,3.27,2.36,4.45,4.45,1.18,2.09,1.77,4.65,1.77,7.67,0,3.27-.59,6.01-1.77,8.22-1.18,2.21-2.85,3.85-5,4.9-2.15,1.06-4.33,1.8-6.54,2.22-2.21.42-4.74.64-7.58.64" />

</svg>